{"title":"Cruel.Intentions.2.2000.DVDrip.x264.AC3.RoSubbed-playSD","uid":12481824,"size":715110408,"categoryP":"video","categoryS":"movies","magnet":"?xt=urn:btih:8b15134fdd9475ffc803613235308fc3d00080b6&amp;dn=Cruel.Intentions.2.2000.DVDrip.x264.AC3.RoSubbed-playSD&amp;tr=udp%3A%2F%2Ftracker.leechers-paradise.org%3A6969&amp;tr=udp%3A%2F%2Fzer0day.ch%3A1337&amp;tr=udp%3A%2F%2Fopen.demonii.com%3A1337&amp;tr=udp%3A%2F%2Ftracker.coppersurfer.tk%3A6969&amp;tr=udp%3A%2F%2Fexodus.desync.com%3A6969","seeders":0,"leechers":1,"uploader":"TvTeam","files":6,"time":1443059752,"description":"------------------------------------------------------------------------\r\n\r  https://www.torrenting.com\r\n\r\nSign up is OPEN - for time being. Come and have fun.\r\n\r\n------------------------------------------------------------------------General\r\nUnique ID                                : 230925369657871758516077647185360131706 (0xADBA9BC25950B64AB702C8A92783167A)\r\nComplete name                            : F:UploadCruel.Intentions.2.2000.DVDrip.x264.AC3.RoSubbed-playSDCruel.Intentions.2.2000.DVDrip.x264.AC3.RoSubbed-playSD.mkv\r\nFormat                                   : Matroska\r\nFormat version                           : Version 4 / Version 2\r\nFile size                                : 669 MiB\r\nDuration                                 : 1h 23mn\r\nOverall bit rate                         : 1 121 Kbps\r\nEncoded date                             : UTC 2015-09-06 18:48:07\r\nWriting application                      : mkvmerge v8.2.0 ('World of Adventure') 64bit\r\nWriting library                          : libebml v1.3.1 + libmatroska v1.4.2\r\nDURATION                                 : 01:23:28.352000000\r\nNUMBER_OF_FRAMES                         : 156511\r\nNUMBER_OF_BYTES                          : 240400896\r\n_STATISTICS_WRITING_APP                  : mkvmerge v8.2.0 ('World of Adventure') 64bit\r\n_STATISTICS_WRITING_DATE_UTC             : 2015-09-06 18:48:07\r\n_STATISTICS_TAGS                         : BPS DURATION NUMBER_OF_FRAMES NUMBER_OF_BYTES\r\n\r\nVideo\r\nID                                       : 1\r\nFormat                                   : AVC\r\nFormat/Info                              : Advanced Video Codec\r\nFormat profile                           :   \r\nFormat settings, CABAC                   : Yes\r\nFormat settings, ReFrames                : 4 frames\r\nCodec ID                                 : V_MPEG4/ISO/AVC\r\nDuration                                 : 1h 23mn\r\nBit rate                                 : 715 Kbps\r\nWidth                                    : 720 pixels\r\nHeight                                   : 388 pixels\r\nDisplay aspect ratio                     : 1.85:1\r\nFrame rate mode                          : Constant\r\nFrame rate                               : 25.000 fps\r\nColor space                              : YUV\r\nChroma subsampling                       : 4:2:0\r\nBit depth                                : 8 bits\r\nScan type                                : Progressive\r\nBits/(Pixel*Frame)                       : 0.102\r\nStream size                              : 427 MiB (64%)\r\nWriting library                          : x264 core 125 r2200 999b753\r\nEncoding settings                        : cabac=1 / ref=5 / deblock=1:-3:-3 / analyse=0x3:0x113 / me=umh / subme=8 / psy=1 / psy_rd=0.00:0.00 / mixed_ref=1 / me_range=16 / chroma_me=1 / trellis=2 / 8x8dct=1 / cqm=0 / deadzone=21,11 / fast_pskip=1 / chroma_qp_offset=0 / threads=6 / lookahead_threads=1 / sliced_threads=0 / nr=0 / decimate=1 / interlaced=0 / bluray_compat=0 / constrained_intra=0 / bframes=5 / b_pyramid=1 / b_adapt=2 / b_bias=0 / direct=3 / weightb=1 / open_gop=0 / weightp=2 / keyint=250 / keyint_min=25 / scenecut=40 / intra_refresh=0 / rc_lookahead=50 / rc=crf / mbtree=1 / crf=19.0 / qcomp=0.60 / qpmin=0 / qpmax=69 / qpstep=4 / ip_ratio=1.40 / aq=1:1.00\r\nDefault                                  : Yes\r\nForced                                   : No\r\n\r\nAudio\r\nID                                       : 2\r\nFormat                                   : AC-3\r\nFormat/Info                              : Audio Coding 3\r\nMode extension                           : CM (complete main)\r\nFormat settings, Endianness              : Big\r\nCodec ID                                 : A_AC3\r\nDuration                                 : 1h 23mn\r\nBit rate mode                            : Constant\r\nBit rate                                 : 384 Kbps\r\nChannel(s)                               : 6 channels\r\nChannel positions                        : Front: L C R, Side: L R, LFE\r\nSampling rate                            : 48.0 KHz\r\nCompression mode                         : Lossy\r\nStream size                              : 229 MiB (34%)\r\nDefault                                  : Yes\r\nForced                                   : No","torrent":{"xt":"urn:btih:8b15134fdd9475ffc803613235308fc3d00080b6","amp;dn":"Cruel.Intentions.2.2000.DVDrip.x264.AC3.RoSubbed-playSD","amp;tr":["udp%3A%2F%2Ftracker.leechers-paradise.org%3A6969","udp%3A%2F%2Fzer0day.ch%3A1337","udp%3A%2F%2Fopen.demonii.com%3A1337","udp%3A%2F%2Ftracker.coppersurfer.tk%3A6969","udp%3A%2F%2Fexodus.desync.com%3A6969"],"infoHash":"8b15134fdd9475ffc803613235308fc3d00080b6","infoHashBuffer":{"type":"Buffer","data":[139,21,19,79,221,148,117,255,200,3,97,50,53,48,143,195,208,0,128,182]},"announce":[],"urlList":[]}}